<?xml version="1.0" encoding="utf-8"?>
<!-- Generator: Adobe Illustrator 18.0.0, SVG Export Plug-In . SVG Version: 6.00 Build 0)  -->
<!DOCTYPE svg PUBLIC "-//W3C//DTD SVG 1.1//EN" "http://www.w3.org/Graphics/SVG/1.1/DTD/svg11.dtd">
<svg version="1.1" id="Layer_1" xmlns="http://www.w3.org/2000/svg" xmlns:xlink="http://www.w3.org/1999/xlink" x="0px" y="0px"
	 width="216px" height="216px" viewBox="0 0 216 216" enable-background="new 0 0 216 216" xml:space="preserve">
<path fill="#010101" d="M104.6,180.7c-2,0-3.9-0.5-5.7-1.5l-18.1-10.7c-2.7-1.5-1.4-2-0.5-2.4c3.6-1.2,4.3-1.5,8.2-3.7
	c0.4-0.2,0.9-0.1,1.3,0.1l13.9,8.2c0.5,0.3,1.2,0.3,1.7,0l54.1-31.2c0.5-0.3,0.8-0.9,0.8-1.5V75.7c0-0.6-0.3-1.2-0.8-1.5l-54-31.2
	c-0.5-0.3-1.2-0.3-1.7,0l-54,31.2c-0.5,0.3-0.9,0.9-0.9,1.5v62.4c0,0.6,0.3,1.2,0.9,1.4l14.8,8.6c8,4,13-0.7,13-5.5V81
	c0-0.9,0.7-1.6,1.6-1.6h6.9c0.9,0,1.6,0.7,1.6,1.6v61.6c0,10.7-5.8,16.9-16,16.9c-3.1,0-5.6,0-12.5-3.4L44.8,148
	c-3.5-2-5.7-5.8-5.7-9.9V75.7c0-4.1,2.2-7.8,5.7-9.9l54.1-31.2c3.4-1.9,8-1.9,11.4,0l54.1,31.2c3.5,2,5.7,5.8,5.7,9.9v62.4
	c0,4.1-2.2,7.8-5.7,9.9l-54.1,31.2C108.5,180.2,106.6,180.7,104.6,180.7z M148.2,119.2c0-11.7-7.9-14.8-24.5-17
	c-16.8-2.2-18.5-3.4-18.5-7.3c0-3.2,1.4-7.6,13.9-7.6c11.1,0,15.2,2.4,16.9,9.9c0.1,0.7,0.8,1.2,1.5,1.2h7c0.4,0,0.8-0.2,1.1-0.5
	c0.3-0.3,0.5-0.8,0.4-1.2c-1.1-12.9-9.7-18.9-27-18.9c-15.4,0-24.6,6.5-24.6,17.4c0,11.8,9.1,15.1,23.9,16.6
	c17.7,1.7,19.1,4.3,19.1,7.8c0,6-4.8,8.6-16.2,8.6c-14.3,0-17.5-3.6-18.5-10.7c-0.1-0.8-0.8-1.3-1.6-1.3h-7c-0.9,0-1.6,0.7-1.6,1.6
	c0,9.1,5,20,28.6,20C138.4,137.7,148.2,131,148.2,119.2z M172,55.9V57h3v8h1.2v-8h3.1v-1.1H172z M180.4,65h1.2v-5.3c0-0.2,0-0.6,0-1
	c0-0.5,0-0.8,0-1v-0.3l2.6,7.6h1.2l2.6-7.6c0,0.5,0,0.9,0,1.4c0,0.4,0,0.7,0,0.9V65h1.2v-9h-1.7l-2.6,7.6l-2.6-7.6h-1.8V65z"/>
</svg>
